<svg width="20" height="20" viewBox="0 0 20 20" fill="none" xmlns="http://www.w3.org/2000/svg">
<path d="M5.83341 3.33317C6.29365 3.33317 6.66675 2.96007 6.66675 2.49984C6.66675 2.0396 6.29365 1.6665 5.83341 1.6665H3.33341C2.41294 1.6665 1.66675 2.4127 1.66675 3.33317V16.6665C1.66675 17.587 2.41294 18.3332 3.33341 18.3332H5.83341C6.29365 18.3332 6.66675 17.9601 6.66675 17.4998C6.66675 17.0396 6.29365 16.6665 5.83341 16.6665H3.33341V3.33317H5.83341Z" fill="currentColor"/>
<path d="M18.0893 10.5891L13.9227 14.7558C13.5972 15.0812 13.0696 15.0812 12.7442 14.7558C12.4187 14.4303 12.4187 13.9027 12.7442 13.5772L15.4882 10.8332H6.66675C6.20651 10.8332 5.83341 10.4601 5.83341 9.99984C5.83341 9.5396 6.20651 9.1665 6.66675 9.1665H15.4882L12.7442 6.42243C12.4187 6.09699 12.4187 5.56935 12.7442 5.24392C13.0696 4.91848 13.5972 4.91848 13.9227 5.24392L18.0893 9.41058C18.4148 9.73602 18.4148 10.2637 18.0893 10.5891Z" fill="currentColor"/>
</svg>
