<svg width="20" height="20" viewBox="0 0 20 20" fill="none" xmlns="http://www.w3.org/2000/svg">
<g clip-path="url(#clip0_1471_18531)">
<path fill-rule="evenodd" clip-rule="evenodd" d="M19.7559 0.244078C20.0814 0.569515 20.0814 1.09715 19.7559 1.42259L16.0851 5.09343C16.1478 5.44683 16.1805 5.81017 16.1805 6.18056V6.94445C16.1805 8.77828 16.4295 10.4039 16.809 11.5423C17.0001 12.1158 17.2094 12.5198 17.4013 12.7634C17.5434 12.9437 17.6282 12.9801 17.6477 12.9862C18.1038 12.9909 18.4722 13.3622 18.4722 13.8194V13.9931C18.4722 14.4533 18.0991 14.8264 17.6388 14.8264H6.35212L1.42259 19.7559C1.09715 20.0814 0.569515 20.0814 0.244078 19.7559C-0.0813592 19.4305 -0.0813592 18.9028 0.244078 18.5774L5.41296 13.4085C5.41607 13.4054 5.41921 13.4022 5.42237 13.3991L14.5737 4.24774C14.5814 4.23982 14.5891 4.23205 14.5971 4.22443L18.5774 0.244078C18.9028 -0.0813592 19.4305 -0.0813592 19.7559 0.244078ZM14.5138 6.66466L8.01878 13.1597H15.6848C15.5101 12.8305 15.3585 12.4615 15.2278 12.0693C14.7779 10.7194 14.5138 8.90757 14.5138 6.94445V6.66466Z" fill="currentColor"/>
<path d="M7.21283 16.4132C7.58289 16.1396 8.10471 16.2178 8.37834 16.5878C8.82107 17.1866 9.40631 17.5 9.99995 17.5C10.5936 17.5 11.1788 17.1866 11.6216 16.5878C11.8952 16.2178 12.417 16.1396 12.7871 16.4132C13.1571 16.6869 13.2353 17.2087 12.9617 17.5787C12.2682 18.5165 11.2207 19.1666 9.99995 19.1666C8.77921 19.1666 7.73166 18.5165 7.03823 17.5787C6.7646 17.2087 6.84277 16.6869 7.21283 16.4132Z" fill="currentColor"/>
<path d="M9.99996 1.24176e-08C6.58653 1.24176e-08 3.81941 2.76713 3.81941 6.18056V6.94445C3.81941 8.28862 3.68555 9.52704 3.46169 10.5455C3.36288 10.995 3.64717 11.4395 4.09668 11.5383C4.54618 11.6371 4.99068 11.3528 5.08949 10.9033C5.34242 9.75263 5.48607 8.39289 5.48607 6.94445V6.18056C5.48607 3.6876 7.50701 1.66667 9.99996 1.66667C10.9932 1.66667 11.9092 1.98647 12.654 2.52893C13.0261 2.79988 13.5473 2.71794 13.8183 2.34591C14.0892 1.97388 14.0073 1.45264 13.6352 1.18169C12.615 0.438629 11.3575 1.24176e-08 9.99996 1.24176e-08Z" fill="currentColor"/>
</g>
<defs>
<clipPath id="clip0_1471_18531">
<rect width="20" height="20" fill="white"/>
</clipPath>
</defs>
</svg>
