<svg width="25" height="25" viewBox="0 0 25 25" fill="none" xmlns="http://www.w3.org/2000/svg">
<mask id="mask0_77_264" style="mask-type:luminance" maskUnits="userSpaceOnUse" x="0" y="0" width="25" height="25">
<path d="M25 0H0V25H25V0Z" fill="white"/>
</mask>
<g mask="url(#mask0_77_264)">
<path d="M24.5 12.7841C24.5 11.8977 24.4205 11.0455 24.2727 10.2272H12.5V15.0625H19.2272C18.9375 16.625 18.0569 17.9489 16.733 18.8352V21.9716H20.7728C23.1364 19.7955 24.5 16.5909 24.5 12.7841Z" fill="#4285F4"/>
<path d="M12.5 25C15.875 25 18.7045 23.8806 20.7726 21.9716L16.7328 18.8352C15.6136 19.5852 14.1817 20.0284 12.5 20.0284C9.24422 20.0284 6.48859 17.8295 5.50559 14.875H1.32947V18.1136C3.38634 22.1989 7.61359 25 12.5 25Z" fill="#34A853"/>
<path d="M5.50562 14.875C5.25562 14.125 5.11363 13.3239 5.11363 12.5C5.11363 11.6761 5.25562 10.875 5.50562 10.125V6.88635H1.3295C0.482999 8.57385 0 10.483 0 12.5C0 14.517 0.482999 16.4261 1.3295 18.1136L5.50562 14.875Z" fill="#FBBC04"/>
<path d="M12.5 4.97162C14.3351 4.97162 15.9828 5.60225 17.2783 6.84088L20.8636 3.25562C18.6988 1.23862 15.8692 0 12.5 0C7.61359 0 3.38634 2.80113 1.32947 6.88637L5.50559 10.125C6.48859 7.1705 9.24422 4.97162 12.5 4.97162Z" fill="#E94235"/>
</g>
</svg>
