<svg width="32" height="32" viewBox="0 0 32 32" fill="none" xmlns="http://www.w3.org/2000/svg">
<rect x="0.5" y="0.5" width="31" height="31" rx="15.5" fill="white"/>
<rect x="0.5" y="0.5" width="31" height="31" rx="15.5" stroke="#EDEEF0"/>
<path d="M26.501 16.2332C26.501 15.3699 26.4296 14.7399 26.2748 14.0865H16.2153V17.9832H22.12C22.001 18.9515 21.3582 20.4099 19.9296 21.3898L19.9096 21.5203L23.0902 23.935L23.3106 23.9565C25.3343 22.1249 26.501 19.4298 26.501 16.2332Z" fill="#4285F4"/>
<path d="M16.2145 26.5C19.1073 26.5 21.5358 25.5666 23.3097 23.9566L19.9287 21.3898C19.024 22.0082 17.8097 22.4399 16.2145 22.4399C13.3812 22.4399 10.9764 20.6082 10.1192 18.0765L9.99358 18.087L6.68632 20.5954L6.64307 20.7132C8.40495 24.1432 12.024 26.5 16.2145 26.5Z" fill="#34A853"/>
<path d="M10.12 18.0766C9.89379 17.4233 9.76289 16.7232 9.76289 15.9999C9.76289 15.2765 9.89379 14.5766 10.1081 13.9232L10.1021 13.7841L6.75337 11.2355L6.64381 11.2865C5.91765 12.7099 5.50098 14.3083 5.50098 15.9999C5.50098 17.6916 5.91765 19.2899 6.64381 20.7132L10.12 18.0766Z" fill="#FBBC05"/>
<path d="M16.2145 9.55997C18.2264 9.55997 19.5835 10.4116 20.3574 11.1233L23.3812 8.23C21.5241 6.53834 19.1074 5.5 16.2145 5.5C12.024 5.5 8.40496 7.85665 6.64307 11.2866L10.1073 13.9233C10.9765 11.3917 13.3812 9.55997 16.2145 9.55997Z" fill="#EB4335"/>
</svg>
