<svg width="24" height="24" viewBox="0 0 24 24" fill="none" xmlns="http://www.w3.org/2000/svg">
<path fill-rule="evenodd" clip-rule="evenodd" d="M2.77325 4.83786C0.560765 7.1181 0.377187 10.7638 2.45658 13.1733C3.32359 14.178 4.23261 15.1959 5.03984 16.0278C6.95865 18.0054 9.89687 20.5758 11.259 21.7483C11.4735 21.933 11.7393 22.0149 11.9995 21.9977C12.2599 22.0151 12.5259 21.9332 12.7406 21.7484C14.1027 20.576 17.0409 18.006 18.9596 16.0286C19.767 15.1964 20.6763 14.1782 21.5435 13.1732C23.6228 10.7636 23.4392 7.11797 21.2268 4.83782C18.8491 2.38736 14.9942 2.3874 12.6165 4.8379L11.9999 5.47332L11.3833 4.83778C9.00572 2.3874 5.15087 2.38744 2.77325 4.83786Z" fill="#3F89FF"/>
</svg>
