<svg width="20" height="20" viewBox="0 0 20 20" fill="none" xmlns="http://www.w3.org/2000/svg">
<path fill-rule="evenodd" clip-rule="evenodd" d="M5.83341 3.3335C5.83341 1.95278 6.9527 0.833496 8.33341 0.833496H11.6667C13.0475 0.833496 14.1667 1.95278 14.1667 3.3335V4.16683H17.5001C17.9603 4.16683 18.3334 4.53993 18.3334 5.00016C18.3334 5.4604 17.9603 5.8335 17.5001 5.8335H16.6163L15.9295 16.8228C15.8471 18.1404 14.7545 19.1668 13.4343 19.1668H6.56583C5.24567 19.1668 4.15305 18.1404 4.0707 16.8228L3.38387 5.8335H2.50008C2.03984 5.8335 1.66675 5.4604 1.66675 5.00016C1.66675 4.53993 2.03984 4.16683 2.50008 4.16683H5.83341V3.3335ZM7.50008 4.16683H12.5001V3.3335C12.5001 2.87326 12.127 2.50016 11.6667 2.50016H8.33341C7.87318 2.50016 7.50008 2.87326 7.50008 3.3335V4.16683ZM5.05379 5.8335L5.73412 16.7188C5.76157 17.158 6.12578 17.5002 6.56583 17.5002H13.4343C13.8744 17.5002 14.2386 17.158 14.266 16.7188L14.9464 5.8335H5.05379Z" fill="currentColor"/>
</svg>
